<svg xmlns="http://www.w3.org/2000/svg" xmlns:xlink="http://www.w3.org/1999/xlink" viewBox="0 0 151.11 114.08"><defs><style>.cls-1{fill:none;}.cls-2{fill:#a8dff7;}.cls-3{fill:#455ba5;}.cls-4{clip-path:url(#clip-path);}.cls-5{fill:#ee616c;}.cls-6{opacity:0.15;}.cls-7{fill:#1a294f;}.cls-8{fill:#fff;}.cls-9{fill:#bce4f8;}.cls-10{fill:#4979b9;}</style><clipPath id="clip-path"><rect class="cls-1" x="7.8" width="136" height="112.95"/></clipPath></defs><title>x1</title><g id="Capa_2" data-name="Capa 2"><g id="Capa_1-2" data-name="Capa 1"><path class="cls-2" d="M14.58,17.47H20.1A1.52,1.52,0,0,0,21.62,16h0a1.52,1.52,0,0,0-1.52-1.52H17.79Q16.15,15.85,14.58,17.47Z"/><path class="cls-2" d="M150.44,34.15a1.52,1.52,0,0,1-.35,0h-7.91a1.52,1.52,0,0,0,0,3h8.75A30.59,30.59,0,0,0,150.44,34.15Z"/><path class="cls-2" d="M145.37,40.27H123.65a1.52,1.52,0,1,1,0-3h7.93a1.52,1.52,0,0,0,0-3h-4.89a1.52,1.52,0,1,1,0-3h23a27,27,0,0,0-2.91-6.2c-7.64-12-18.62-15-28.81-13.87a2.27,2.27,0,0,1-1.47,4h-7.3a2.27,2.27,0,1,0,0,4.54H121a2.27,2.27,0,0,1,0,4.54H72.57a2.27,2.27,0,0,1,0-4.54H93.31a2.27,2.27,0,0,0,0-4.54H81.5a2.27,2.27,0,0,1,0-4.54H93.75c-8.23-6.48-23-12.48-42.68-10-3.89.5-17.27,2.22-29.4,10.8H38.61a1.52,1.52,0,1,1,0,3H30.7A1.52,1.52,0,0,0,29.18,16h0a1.52,1.52,0,0,0,1.52,1.52H44.58A1.52,1.52,0,0,1,46.1,19h0a1.52,1.52,0,0,1-1.52,1.52H12.16l-.27,0q-1.33,1.63-2.56,3.43A54,54,0,0,0,1.5,42.31H30a2.27,2.27,0,0,1,0,4.54H18.14a2.27,2.27,0,0,0,0,4.54H38.88a2.27,2.27,0,0,1,0,4.54H0C0,71.88,6.23,87.67,18.41,97c25.27,19.41,66.53,8.85,79.84-16.33,12.14-23,23.87,2.61,45.36-19.44,4.49-4.61,7.57-12.64,7.48-21Z"/><path class="cls-2" d="M2.3,51.39a2.27,2.27,0,0,0,0-4.54H.65q-.33,2.26-.5,4.54H2.3Z"/><path class="cls-3" d="M91.21,18.94l-.49,0a1.29,1.29,0,0,0-.42-1c-1.19-1.14-4.34-1-4.37-1a.24.24,0,1,1,0-.49c.14,0,3.39-.12,4.73,1.17a1.9,1.9,0,0,1,.41.56c.49-.69,1.71-1.61,4.78-1.73a.25.25,0,0,1,.25.23.24.24,0,0,1-.23.25,6.57,6.57,0,0,0-4,1.1A1.59,1.59,0,0,0,91.21,18.94Z"/><path class="cls-3" d="M138.49,33.71l-.48,0a.74.74,0,0,0-.24-.55A4.6,4.6,0,0,0,135,32.5a.25.25,0,0,1-.25-.23A.24.24,0,0,1,135,32c.09,0,2.19-.08,3.07.77a1.35,1.35,0,0,1,.21.26c.37-.44,1.2-1,3-1a.24.24,0,1,1,0,.49C138.67,32.6,138.49,33.7,138.49,33.71Z"/><path class="cls-3" d="M21.91,24.91l-.49,0a.74.74,0,0,0-.24-.55,4.61,4.61,0,0,0-2.71-.63.24.24,0,0,1,0-.49c.09,0,2.19-.08,3.07.77a1.35,1.35,0,0,1,.21.26c.37-.44,1.2-1,3-1a.24.24,0,1,1,0,.49C22.08,23.8,21.91,24.89,21.91,24.91Z"/><path class="cls-3" d="M132.19,37.35l-.48,0a.74.74,0,0,0-.24-.55,4.6,4.6,0,0,0-2.71-.63.24.24,0,0,1-.25-.23.24.24,0,0,1,.23-.25c.09,0,2.19-.08,3.07.77a1.35,1.35,0,0,1,.21.26c.37-.44,1.2-1,3-1a.24.24,0,1,1,0,.49C132.37,36.24,132.19,37.34,132.19,37.35Z"/><g class="cls-4"><path class="cls-2" d="M36.66,112.74c0,.46,0,.9,0,1.34H48.39V99.81q0,1.06,0,2.13v9.88q0,1.13,0,2.27h73c0-.37,0-.75,0-1.14v-8.26c0-2.1.1-4.25-.1-6.35A22.14,22.14,0,0,0,101.31,78.4c-1.45-.14-2.91-.1-4.36-.1a10.45,10.45,0,0,1-2.16-.15,6.91,6.91,0,0,1-3-1.43,7,7,0,0,1-2.52-5.34c0-2.17,0-4.34,0-6.51V61a2.89,2.89,0,0,0,0-.92c-.05-.11,0,0-.14-.07a12.6,12.6,0,0,0-1.94,0H69c-.06,0-.19,0-.23,0s0,.61,0,.73v3.67c0,2.3,0,4.6,0,6.9a7,7,0,0,1-2.12,5,7.32,7.32,0,0,1-5.28,1.93c-1.4,0-2.81,0-4.2.06A22.16,22.16,0,0,0,36.82,97.85a56.45,56.45,0,0,0-.15,6.55Z"/><polygon class="cls-3" points="109.06 99.81 109.06 114.08 110.21 114.08 110.19 99.81 109.06 99.81"/><path class="cls-3" d="M37.23,114.08V100.46A21.62,21.62,0,0,1,58.82,78.86h3a7.47,7.47,0,0,0,7.47-7.47V60.59H88.74v10.8a7.47,7.47,0,0,0,7.47,7.47h3a21.62,21.62,0,0,1,21.59,21.59v13.63h1.14V100.46A22.75,22.75,0,0,0,99.2,77.73h-3a6.34,6.34,0,0,1-6.35-6.35V59.46H68.18V71.39a6.34,6.34,0,0,1-6.35,6.35h-3A22.75,22.75,0,0,0,36.1,100.46v13.25h0v.37Z"/><polygon class="cls-3" points="47.83 99.81 47.83 114.08 48.97 114.08 48.96 99.81 47.83 99.81"/><path class="cls-2" d="M121.39,114.08V98.86a11.74,11.74,0,0,0-11.74-11.74v27Z"/><path class="cls-3" d="M110.21,114.08V87.69a11.19,11.19,0,0,1,10.62,11.17v15.23H122V98.86a12.32,12.32,0,0,0-12.31-12.31h-.56v27.54Z"/><path class="cls-2" d="M48.41,114.08v-27A11.74,11.74,0,0,0,36.66,98.86v15.23Z"/><path class="cls-3" d="M37.23,114.08V98.86A11.19,11.19,0,0,1,47.84,87.69v26.39H49V86.55h-.56A12.32,12.32,0,0,0,36.1,98.86v15.23Z"/><circle class="cls-3" cx="58.58" cy="107.25" r="1.33"/><circle class="cls-3" cx="99.58" cy="107.25" r="1.33"/><path class="cls-5" d="M48.41,108.15V99.81"/><rect class="cls-3" x="47.84" y="99.81" width="1.13" height="14.27"/><path class="cls-5" d="M109.64,108.15V99.81"/><rect class="cls-3" x="109.08" y="99.81" width="1.13" height="14.27"/><g class="cls-6"><path d="M79.22,60H89.3V71.39A6.91,6.91,0,0,0,94.12,78l.2.32A15.11,15.11,0,0,1,79.22,93.39S93.07,78.1,79.22,60Z"/></g><path class="cls-3" d="M79.86,75.43a2.27,2.27,0,1,1,0-4.54V72a1.14,1.14,0,1,0,0,2.28Z"/><path class="cls-7" d="M121.35,114.08V100.46A22.16,22.16,0,0,0,99.2,78.3h-3A6.92,6.92,0,0,1,94.3,78L81.18,114.08Z"/><path class="cls-7" d="M78.43,114.08,64.13,77.91a6.9,6.9,0,0,1-2.3.39h-3a22.16,22.16,0,0,0-22.16,22.16v13.63Z"/><rect class="cls-3" x="109.04" y="101.09" width="1.2" height="12.99"/><path class="cls-3" d="M81.82,114.08,94.68,78.74a7.53,7.53,0,0,0,1.54.16h3a21.58,21.58,0,0,1,21.56,21.56v13.63H122V100.46A22.78,22.78,0,0,0,99.2,77.7h-3a6.32,6.32,0,0,1-1.75-.25l-.54-.15L80.55,114.08Z"/><rect class="cls-3" x="47.81" y="101.36" width="1.2" height="12.73"/><path class="cls-3" d="M37.26,114.08V100.46A21.58,21.58,0,0,1,58.82,78.9h3a7.51,7.51,0,0,0,1.95-.25l14,35.44h1.29L64.48,77.15l-.54.19a6.3,6.3,0,0,1-2.1.36h-3a22.78,22.78,0,0,0-22.75,22.75v13.63Z"/><path class="cls-8" d="M81.18,114.08,94.3,78,94.12,78a6.93,6.93,0,0,1-4-3.38l0,0a30.8,30.8,0,0,1-22.18,0h0a6.93,6.93,0,0,1-3.8,3.26l14.29,36.17Z"/><path class="cls-3" d="M77.78,114.08h1.28L64.91,78.24a7.49,7.49,0,0,0,3.29-2.86,31.41,31.41,0,0,0,21.66,0,7.59,7.59,0,0,0,3.68,3l-13,35.68h1.27l13-35.85a.6.6,0,0,0-.4-.78l-.16,0a6.37,6.37,0,0,1-3.65-3l0,0,0,0a.6.6,0,0,0-.81-.24l-.13.09a30.21,30.21,0,0,1-21.53-.07.6.6,0,0,0-.72.23l0,.07a6.31,6.31,0,0,1-3.46,3,.6.6,0,0,0-.36.78Z"/><polyline class="cls-8" points="91.32 86.22 79.16 76.83 67.01 86.22"/><path class="cls-3" d="M91,86.69,79.16,77.58,67.38,86.69l-.73-.95L78.8,76.35a.6.6,0,0,1,.73,0l12.15,9.39Z"/><polygon class="cls-5" points="75.71 79.5 77.49 82.68 80.84 82.68 82.62 79.5 79.16 76.83 75.71 79.5"/><path class="cls-3" d="M81.17,83.25h-4L75,79.35l4.19-3.23,4.18,3.23Zm-3.35-1.13h2.68l1.38-2.47-2.72-2.1-2.72,2.1Z"/><polygon class="cls-5" points="81.18 114.08 83.67 107.25 80.84 82.68 77.49 82.68 75.71 107.25 78.42 114.08 81.18 114.08"/><path class="cls-3" d="M77.81,114.08H79l-2.75-6.92L78,83.25h2.32l2.76,23.94-2.51,6.9h1.2l2.42-6.64a.57.57,0,0,0,0-.26L81.4,82.62a.56.56,0,0,0-.56-.5H77.49a.56.56,0,0,0-.56.52l-1.78,24.57a.56.56,0,0,0,0,.25Z"/><path class="cls-3" d="M64.86,102.82l4.82,3.52.11,7.74h1.3l-.18-.06-.12-8a.56.56,0,0,0-.23-.45l-4.83-3.53-.9-20.83,13,32.84H79L64.66,77.7a.56.56,0,0,0-1.09.23l1.06,24.46A.56.56,0,0,0,64.86,102.82Z"/><path class="cls-3" d="M81.78,114.08l12-32.85v20.64L89,105.46a.56.56,0,0,0-.22.45v8l-.53.19h1.66V106.2l4.77-3.59a.56.56,0,0,0,.22-.45V78a.56.56,0,0,0-1.1-.19L80.58,114.08Z"/><polygon class="cls-8" points="94.67 108.58 99.58 103.67 104.5 108.58 94.67 108.58"/><path class="cls-3" d="M104.5,109.18H94.67a.6.6,0,0,1-.42-1l4.91-4.91a.6.6,0,0,1,.85,0l4.91,4.91a.6.6,0,0,1-.42,1ZM96.11,108h6.94l-3.47-3.47Z"/><rect class="cls-7" x="94.14" y="108.58" width="10.89" height="2.35"/><path class="cls-3" d="M105.62,111.53H93.54V108h12.08Zm-10.89-1.2h9.69v-1.15H94.74Z"/><g class="cls-6"><polygon points="79.16 76.83 89.85 90.24 91.32 86.22 79.16 76.83"/></g><path class="cls-3" d="M91,86.69,79.16,77.58,67.38,86.69l-.73-.95L78.8,76.35a.6.6,0,0,1,.73,0l12.15,9.39Z"/><rect class="cls-3" x="109.04" y="101.09" width="1.2" height="12.99"/><path class="cls-3" d="M81.82,114.08,94.68,78.74a7.53,7.53,0,0,0,1.54.16h3a21.58,21.58,0,0,1,21.56,21.56v13.63H122V100.46A22.78,22.78,0,0,0,99.2,77.7h-3a6.32,6.32,0,0,1-1.75-.25l-.54-.15L80.55,114.08Z"/><path class="cls-3" d="M37.26,114.08V100.46A21.58,21.58,0,0,1,58.82,78.9h3a7.51,7.51,0,0,0,1.95-.25l14,35.44h1.29L64.48,77.15l-.54.19a6.3,6.3,0,0,1-2.1.36h-3a22.78,22.78,0,0,0-22.75,22.75v13.63Z"/><rect class="cls-3" x="47.81" y="101.36" width="1.2" height="12.73"/><rect class="cls-9" x="56.84" y="17.95" width="44.36" height="50.14" rx="22.18" ry="22.18"/><path class="cls-3" d="M80.57,68.65H77.47A21.22,21.22,0,0,1,56.28,47.46V38.58A21.22,21.22,0,0,1,77.47,17.39h3.09a21.22,21.22,0,0,1,21.19,21.19v8.88A21.22,21.22,0,0,1,80.57,68.65ZM77.47,18.51A20.09,20.09,0,0,0,57.4,38.58v8.88A20.09,20.09,0,0,0,77.47,67.53h3.09a20.09,20.09,0,0,0,20.07-20.07V38.58A20.09,20.09,0,0,0,80.57,18.51Z"/><path class="cls-3" d="M73.48,44.34H72.36a3.58,3.58,0,1,0-7.15,0H64.08a4.7,4.7,0,0,1,9.4,0Z"/><path class="cls-3" d="M93.91,44.34H92.78a3.58,3.58,0,1,0-7.15,0H84.51a4.7,4.7,0,0,1,9.4,0Z"/><path class="cls-3" d="M83.57,37.56l-.72-.86a9.94,9.94,0,0,1,12.69,0l-.71.87a8.82,8.82,0,0,0-11.25,0Z"/><path class="cls-3" d="M63.16,37.56l-.72-.86a9.94,9.94,0,0,1,12.69,0l-.71.87a8.82,8.82,0,0,0-11.25,0Z"/><path class="cls-9" d="M56.56,39.25a5.09,5.09,0,0,0,0,10.19Z"/><path class="cls-3" d="M57.12,50h-.56a5.65,5.65,0,1,1,0-11.31h.56ZM56,39.85a4.53,4.53,0,0,0,0,9Z"/><path class="cls-9" d="M101.43,39.25a5.09,5.09,0,1,1,0,10.19Z"/><path class="cls-3" d="M101.43,50h-.56V38.69h.56a5.65,5.65,0,1,1,0,11.31ZM102,39.85v9a4.53,4.53,0,0,0,0-9Z"/><path class="cls-8" d="M84.78,50.23a5.81,5.81,0,0,1-11.61,0Z"/><path class="cls-3" d="M79,56.63a6.41,6.41,0,0,1-6.4-6.4v-.59h12.8v.59A6.41,6.41,0,0,1,79,56.63ZM73.8,50.82a5.21,5.21,0,0,0,10.36,0Z"/><path class="cls-10" d="M99.42,29.95l2-.42V43.34a1,1,0,0,1-1,1h0a1,1,0,0,1-1-1Z"/><path class="cls-3" d="M100.42,44.9a1.57,1.57,0,0,1-1.56-1.56V29.49l3.13-.65v14.5A1.57,1.57,0,0,1,100.42,44.9ZM100,30.41V43.34a.44.44,0,1,0,.88,0V30.22Z"/><path class="cls-6" d="M79,18.3h0c12.39,0,22.43-9.1,22.43,22.43v.14c1.2,12.26-4.11,27.42-22.45,27.22C79,68.09,108,51.81,79,18.3Z"/><path class="cls-10" d="M56.56,42.86a10.21,10.21,0,0,1,5.3-18.95h0a24.85,24.85,0,0,1,47.46,1.46,1.35,1.35,0,0,1-.69,1.57A35.4,35.4,0,0,1,93,30.52a36.87,36.87,0,0,1-18-4.74h0A18.33,18.33,0,0,1,58.57,36v7.38a1,1,0,0,1-1,1h0a1,1,0,0,1-1-1Z"/><path class="cls-3" d="M57.57,44.9A1.57,1.57,0,0,1,56,43.34v-.17a10.78,10.78,0,0,1,5.46-19.81,25.41,25.41,0,0,1,48.4,1.87,1.91,1.91,0,0,1-1,2.22,36,36,0,0,1-15.61,3.63H93a37.71,37.71,0,0,1-17.74-4.53,18.78,18.78,0,0,1-16.1,10v6.83A1.57,1.57,0,0,1,57.57,44.9ZM85.36,7.69a24.28,24.28,0,0,0-23,16.4l-.13.38h-.4a9.65,9.65,0,0,0-5,17.91l.27.16v.79a.44.44,0,1,0,.88,0V35.4h.56a17.68,17.68,0,0,0,15.92-9.88l.26-.53.52.29A36.51,36.51,0,0,0,93,30a34.69,34.69,0,0,0,15.4-3.51.79.79,0,0,0,.4-.92A24.33,24.33,0,0,0,85.36,7.69Z"/><path class="cls-3" d="M68.8,51.34a7,7,0,1,1,7-7A7,7,0,0,1,68.8,51.34Zm0-12.82a5.81,5.81,0,1,0,5.81,5.81A5.82,5.82,0,0,0,68.8,38.53Z"/><path class="cls-3" d="M88.89,51.34a7,7,0,1,1,7-7A7,7,0,0,1,88.89,51.34Zm0-12.82a5.81,5.81,0,1,0,5.81,5.81A5.82,5.82,0,0,0,88.89,38.53Z"/><path class="cls-3" d="M83,45.17H81.92a3.08,3.08,0,0,0-6.16,0H74.64a4.2,4.2,0,0,1,8.4,0Z"/></g></g></g></svg>