<svg xmlns="http://www.w3.org/2000/svg" xmlns:xlink="http://www.w3.org/1999/xlink" viewBox="0 0 151.11 114.03"><defs><style>.cls-1{fill:none;}.cls-2{fill:#a8dff7;}.cls-3{fill:#455ba5;}.cls-4{clip-path:url(#clip-path);}.cls-5{fill:#5876b6;}.cls-6{fill:#555ba4;}.cls-7{fill:#c7e3f5;}.cls-8{opacity:0.15;}.cls-9{fill:#de5762;}.cls-10{fill:#bce4f8;}.cls-11{fill:#fff;}.cls-12{fill:#1d2550;stroke:#565da5;stroke-miterlimit:10;stroke-width:3px;}.cls-13{fill:#4979b9;}</style><clipPath id="clip-path"><rect class="cls-1" x="7.8" width="136" height="112.95"/></clipPath></defs><title>X2</title><g id="Capa_2" data-name="Capa 2"><g id="Capa_1-2" data-name="Capa 1"><path class="cls-2" d="M14.58,17.47H20.1A1.52,1.52,0,0,0,21.62,16h0a1.52,1.52,0,0,0-1.52-1.52H17.79Q16.15,15.85,14.58,17.47Z"/><path class="cls-2" d="M150.44,34.15a1.52,1.52,0,0,1-.35,0h-7.91a1.52,1.52,0,0,0,0,3h8.75A30.59,30.59,0,0,0,150.44,34.15Z"/><path class="cls-2" d="M145.37,40.27H123.65a1.52,1.52,0,1,1,0-3h7.93a1.52,1.52,0,0,0,0-3h-4.89a1.52,1.52,0,1,1,0-3h23a27,27,0,0,0-2.91-6.2c-7.64-12-18.62-15-28.81-13.87a2.27,2.27,0,0,1-1.47,4h-7.3a2.27,2.27,0,1,0,0,4.54H121a2.27,2.27,0,0,1,0,4.54H72.57a2.27,2.27,0,0,1,0-4.54H93.31a2.27,2.27,0,0,0,0-4.54H81.5a2.27,2.27,0,0,1,0-4.54H93.75c-8.23-6.48-23-12.48-42.68-10-3.89.5-17.27,2.22-29.4,10.8H38.61a1.52,1.52,0,1,1,0,3H30.7A1.52,1.52,0,0,0,29.18,16h0a1.52,1.52,0,0,0,1.52,1.52H44.58A1.52,1.52,0,0,1,46.1,19h0a1.52,1.52,0,0,1-1.52,1.52H12.16l-.27,0q-1.33,1.63-2.56,3.43A54,54,0,0,0,1.5,42.31H30a2.27,2.27,0,0,1,0,4.54H18.14a2.27,2.27,0,0,0,0,4.54H38.88a2.27,2.27,0,0,1,0,4.54H0C0,71.88,6.23,87.67,18.41,97c25.27,19.41,66.53,8.85,79.84-16.33,12.14-23,23.87,2.61,45.36-19.44,4.49-4.61,7.57-12.64,7.48-21Z"/><path class="cls-2" d="M2.3,51.39a2.27,2.27,0,0,0,0-4.54H.65q-.33,2.26-.5,4.54H2.3Z"/><path class="cls-3" d="M91.21,18.94l-.49,0a1.29,1.29,0,0,0-.42-1c-1.19-1.14-4.34-1-4.37-1a.24.24,0,1,1,0-.49c.14,0,3.39-.12,4.73,1.17a1.9,1.9,0,0,1,.41.56c.49-.69,1.71-1.61,4.78-1.73a.25.25,0,0,1,.25.23.24.24,0,0,1-.23.25,6.57,6.57,0,0,0-4,1.1A1.59,1.59,0,0,0,91.21,18.94Z"/><path class="cls-3" d="M138.49,33.71l-.48,0a.74.74,0,0,0-.24-.55A4.6,4.6,0,0,0,135,32.5a.25.25,0,0,1-.25-.23A.24.24,0,0,1,135,32c.09,0,2.19-.08,3.07.77a1.35,1.35,0,0,1,.21.26c.37-.44,1.2-1,3-1a.24.24,0,1,1,0,.49C138.67,32.6,138.49,33.7,138.49,33.71Z"/><path class="cls-3" d="M21.91,24.91l-.49,0a.74.74,0,0,0-.24-.55,4.61,4.61,0,0,0-2.71-.63.24.24,0,0,1,0-.49c.09,0,2.19-.08,3.07.77a1.35,1.35,0,0,1,.21.26c.37-.44,1.2-1,3-1a.24.24,0,1,1,0,.49C22.08,23.8,21.91,24.89,21.91,24.91Z"/><path class="cls-3" d="M132.19,37.35l-.48,0a.74.74,0,0,0-.24-.55,4.6,4.6,0,0,0-2.71-.63.24.24,0,0,1-.25-.23.24.24,0,0,1,.23-.25c.09,0,2.19-.08,3.07.77a1.35,1.35,0,0,1,.21.26c.37-.44,1.2-1,3-1a.24.24,0,1,1,0,.49C132.37,36.24,132.19,37.34,132.19,37.35Z"/><g class="cls-4"><path class="cls-5" d="M57.78,52.76V69.45a30,30,0,0,0,43.43.6h0v-40a1.86,1.86,0,0,0-1.86-1.86H59.64a1.86,1.86,0,0,0-1.86,1.86Z"/><path class="cls-6" d="M79.78,79.7A30.78,30.78,0,0,1,57.3,69.89l-.18-.19V30.08a2.52,2.52,0,0,1,2.52-2.52H99.35a2.52,2.52,0,0,1,2.52,2.52V70.31l-.19.19A30.45,30.45,0,0,1,79.78,79.7ZM58.43,69.19a29.46,29.46,0,0,0,21.35,9.2,29.14,29.14,0,0,0,20.78-8.61V30.08a1.21,1.21,0,0,0-1.21-1.21H59.64a1.21,1.21,0,0,0-1.21,1.21Z"/><path class="cls-7" d="M54.46,114V73.43a11.8,11.8,0,0,0-11.8,11.8V114Z"/><path class="cls-6" d="M43.28,114V85.23A11.2,11.2,0,0,1,53.84,74.07v40h1.24V72.81h-.62A12.44,12.44,0,0,0,42,85.23V114Z"/><path class="cls-7" d="M54.46,114V88.77A208.56,208.56,0,0,0,57.63,114h44a208.56,208.56,0,0,0,3.17-25.26V114h11.8V85.23a11.8,11.8,0,0,0-11.8-11.8h-9.6a10,10,0,0,1-10-10V61.77s-.33.08-.9.2a24,24,0,0,1-9.37,0c-.52-.11-.82-.18-.82-.18V63.4a10,10,0,0,1-10,10h-9.6a11.8,11.8,0,0,0-11.8,11.8V114Z"/><path class="cls-6" d="M43.28,114V85.23A11.19,11.19,0,0,1,54.46,74.05h9.6A10.65,10.65,0,0,0,74.72,63.4v-.85l.08,0a24.48,24.48,0,0,0,9.61,0h0l.16,0v.85A10.65,10.65,0,0,0,95.22,74.05h9.6A11.19,11.19,0,0,1,116,85.23V114h1.24V85.23a12.44,12.44,0,0,0-12.42-12.42h-9.6A9.41,9.41,0,0,1,85.8,63.4V61l-.77.2s-.33.08-.87.19a23.27,23.27,0,0,1-9.13,0c-.49-.1-.78-.17-.79-.18l-.78-.2V63.4a9.41,9.41,0,0,1-9.42,9.42h-9.6A12.44,12.44,0,0,0,42,85.23V114Z"/><path class="cls-6" d="M101,114h1.26c.78-4.18,1.42-8.35,1.92-12.27V114h1.24V88.77l-1.24,0A210.66,210.66,0,0,1,101,114Z"/><path class="cls-6" d="M53.84,88.77V114h1.24V101.76c.5,3.92,1.14,8.1,1.92,12.27h1.26a210.66,210.66,0,0,1-3.18-25.3Z"/><path class="cls-8" d="M84.12,90a16,16,0,0,0,9.69-16.71S84.16,73,84.64,61.66a26.82,26.82,0,0,1-8.11.67S87,74,84.12,90Z"/><path class="cls-9" d="M54.48,114v-26a217.88,217.88,0,0,0,3.23,26h43.9a217.88,217.88,0,0,0,3.23-26v26h11.8V85.23a11.8,11.8,0,0,0-11.8-11.8h-9.6a10,10,0,0,1-6.69-2.55,8.89,8.89,0,0,1-17.79,0,10,10,0,0,1-6.69,2.55h-9.6a11.8,11.8,0,0,0-11.8,11.8V114Z"/><path class="cls-6" d="M43.34,114V85.23A11.16,11.16,0,0,1,54.48,74.09h9.6a10.66,10.66,0,0,0,6.12-1.92,9.55,9.55,0,0,0,18.93,0,10.66,10.66,0,0,0,6.12,1.92h9.6A11.16,11.16,0,0,1,116,85.23V114h1.31V85.23a12.47,12.47,0,0,0-12.46-12.46h-9.6A9.34,9.34,0,0,1,89,70.39l-1.09-1v1.47a8.24,8.24,0,1,1-16.48,0V69.42l-1.09,1a9.34,9.34,0,0,1-6.25,2.38h-9.6A12.47,12.47,0,0,0,42,85.23V114Z"/><path class="cls-6" d="M101,114h1.33c.77-4.15,1.4-8.3,1.91-12.23V114h1.31v-26l-1.31,0A219.2,219.2,0,0,1,101,114Z"/><path class="cls-6" d="M53.83,88.07v26h1.31V101.81c.5,3.93,1.14,8.08,1.91,12.23h1.33a219.2,219.2,0,0,1-3.24-26Z"/><path class="cls-5" d="M67.46,72.85a12.4,12.4,0,0,0,24.4,0h0a10,10,0,0,1-3.31-2h0a8.89,8.89,0,0,1-17.79,0h0a10,10,0,0,1-3.31,2Z"/><path class="cls-6" d="M79.66,83.71A13,13,0,0,1,66.82,73l-.1-.55.52-.19a9.32,9.32,0,0,0,3.09-1.84l1.09-1v1.47a8.24,8.24,0,0,0,16.48,0V69.42l1.09,1a9.32,9.32,0,0,0,3.09,1.84l.52.19-.1.55A13,13,0,0,1,79.66,83.71ZM68.22,73.26a11.74,11.74,0,0,0,22.9,0,10.57,10.57,0,0,1-2-1.09,9.55,9.55,0,0,1-18.93,0A10.59,10.59,0,0,1,68.22,73.26Z"/><circle class="cls-5" cx="79.66" cy="81.59" r="1.17"/><path class="cls-6" d="M79.66,83.42a1.83,1.83,0,1,1,1.83-1.83A1.83,1.83,0,0,1,79.66,83.42Zm0-2.34a.51.51,0,1,0,.51.51A.51.51,0,0,0,79.66,81.08Z"/><circle class="cls-5" cx="79.66" cy="86.67" r="1.17"/><path class="cls-6" d="M79.66,88.5a1.83,1.83,0,1,1,1.83-1.83A1.83,1.83,0,0,1,79.66,88.5Zm0-2.34a.51.51,0,1,0,.51.51A.51.51,0,0,0,79.66,86.16Z"/><circle class="cls-5" cx="79.66" cy="91.75" r="1.17"/><path class="cls-6" d="M79.66,93.58a1.83,1.83,0,1,1,1.83-1.83A1.83,1.83,0,0,1,79.66,93.58Zm0-2.34a.51.51,0,1,0,.51.51A.51.51,0,0,0,79.66,91.24Z"/><circle class="cls-5" cx="79.66" cy="96.83" r="1.17"/><path class="cls-6" d="M79.66,98.65a1.83,1.83,0,1,1,1.83-1.83A1.83,1.83,0,0,1,79.66,98.65Zm0-2.34a.51.51,0,1,0,.51.51A.51.51,0,0,0,79.66,96.31Z"/><circle class="cls-5" cx="79.66" cy="101.91" r="1.17"/><path class="cls-6" d="M79.66,103.73a1.83,1.83,0,1,1,1.83-1.83A1.83,1.83,0,0,1,79.66,103.73Zm0-2.34a.51.51,0,1,0,.51.51A.51.51,0,0,0,79.66,101.39Z"/><circle class="cls-5" cx="79.66" cy="106.98" r="1.17"/><path class="cls-6" d="M79.66,108.81A1.83,1.83,0,1,1,81.49,107,1.83,1.83,0,0,1,79.66,108.81Zm0-2.34a.51.51,0,1,0,.51.51A.51.51,0,0,0,79.66,106.47Z"/><circle class="cls-5" cx="79.66" cy="112.06" r="1.17"/><path class="cls-6" d="M79.66,113.89a1.83,1.83,0,1,1,1.83-1.83A1.83,1.83,0,0,1,79.66,113.89Zm0-2.34a.51.51,0,1,0,.51.51A.51.51,0,0,0,79.66,111.55Z"/><path class="cls-6" d="M101,114h1.26c.78-4.18,1.42-8.35,1.92-12.27V114h1.24V88.77l-1.24,0A210.66,210.66,0,0,1,101,114Z"/><path class="cls-6" d="M92,73.55a10.65,10.65,0,0,0,3.23.5h9.6A11.19,11.19,0,0,1,116,85.23V114h1.24V85.23a12.44,12.44,0,0,0-12.42-12.42h-9.6A9.41,9.41,0,0,1,85.8,63.4H84.57A10.62,10.62,0,0,0,92,73.55Z"/><path class="cls-6" d="M53.84,88.77V114h1.24V101.76c.5,3.92,1.14,8.1,1.92,12.27h1.26a210.66,210.66,0,0,1-3.18-25.3Z"/><path class="cls-6" d="M43.28,114V85.23A11.19,11.19,0,0,1,54.46,74.05h9.6A10.65,10.65,0,0,0,74.72,63.4v-.85l.08,0a24.48,24.48,0,0,0,9.61,0l-.24-1.22a23.27,23.27,0,0,1-9.13,0c-.49-.1-.78-.17-.79-.18l-.78-.2V63.4a9.41,9.41,0,0,1-9.42,9.42h-9.6A12.44,12.44,0,0,0,42,85.23V114Z"/><path class="cls-6" d="M80.2,100a44.51,44.51,0,0,1-18.44-4l.57-1.1c.17.09,17.15,8.62,34.68,0L97.56,96A39,39,0,0,1,80.2,100Z"/><rect class="cls-10" x="56.73" y="11.42" width="45.26" height="51.16" rx="21.71" ry="21.71"/><path class="cls-6" d="M80.31,63.19H78.41A22.32,22.32,0,0,1,56.11,40.9v-7.8A22.32,22.32,0,0,1,78.41,10.8h1.91A22.32,22.32,0,0,1,102.6,33.09v7.8A22.32,22.32,0,0,1,80.31,63.19ZM78.41,12A21.08,21.08,0,0,0,57.35,33.09v7.8A21.08,21.08,0,0,0,78.41,62h1.91A21.08,21.08,0,0,0,101.37,40.9v-7.8A21.08,21.08,0,0,0,80.31,12Z"/><path class="cls-11" d="M84.42,44.79a5,5,0,0,1-10,0Z"/><path class="cls-6" d="M79.4,50.42a5.64,5.64,0,0,1-5.63-5.63v-.62H85v.62A5.64,5.64,0,0,1,79.4,50.42Zm-4.36-5a4.4,4.4,0,0,0,8.71,0Z"/><path class="cls-10" d="M56.55,34.92a5.2,5.2,0,0,0,0,10.4Z"/><path class="cls-6" d="M57.17,45.94h-.62a5.81,5.81,0,1,1,0-11.63h.62ZM55.94,35.58a4.58,4.58,0,0,0,0,9.08Z"/><path class="cls-12" d="M92.19,24"/><path class="cls-10" d="M102,32.94a5.2,5.2,0,1,1,0,10.4Z"/><path class="cls-6" d="M102,43.95h-.62V32.32H102a5.81,5.81,0,1,1,0,11.63Zm.62-10.36v9.08a4.58,4.58,0,0,0,0-9.08Z"/><path class="cls-6" d="M80.31,63.19H78.41A22.32,22.32,0,0,1,56.11,40.9v-7.8A22.32,22.32,0,0,1,78.41,10.8h1.91A22.32,22.32,0,0,1,102.6,33.09v7.8A22.32,22.32,0,0,1,80.31,63.19ZM78.41,12A21.08,21.08,0,0,0,57.35,33.09v7.8A21.08,21.08,0,0,0,78.41,62h1.91A21.08,21.08,0,0,0,101.37,40.9v-7.8A21.08,21.08,0,0,0,80.31,12Z"/><path class="cls-5" d="M54.73,40.18A10.21,10.21,0,0,1,60,21.24h0a24.85,24.85,0,0,1,47.46,1.46,1.35,1.35,0,0,1-.69,1.57,35.4,35.4,0,0,1-15.65,3.57,36.87,36.87,0,0,1-18-4.74h0A18.33,18.33,0,0,1,56.74,33.28v7.38a1,1,0,0,1-1,1h0a1,1,0,0,1-1-1Z"/><path class="cls-6" d="M55.73,42.22a1.57,1.57,0,0,1-1.56-1.56V40.5a10.78,10.78,0,0,1,5.46-19.81A25.41,25.41,0,0,1,108,22.55a1.91,1.91,0,0,1-1,2.22A36,36,0,0,1,91.44,28.4h-.3a37.71,37.71,0,0,1-17.74-4.53,18.78,18.78,0,0,1-16.1,10v6.83A1.57,1.57,0,0,1,55.73,42.22ZM83.53,5a24.28,24.28,0,0,0-23,16.4l-.13.38H60a9.65,9.65,0,0,0-5,17.91l.27.16v.79a.44.44,0,1,0,.88,0V32.72h.56a17.68,17.68,0,0,0,15.92-9.88l.26-.53.52.29a36.51,36.51,0,0,0,17.71,4.67,34.69,34.69,0,0,0,15.4-3.51.79.79,0,0,0,.4-.92A24.33,24.33,0,0,0,83.53,5Z"/><path class="cls-12" d="M91.28,20.41"/><path class="cls-8" d="M57.19,33.81v6.82A25.3,25.3,0,0,0,60,51.14C62.9,56.61,69.59,62.33,79.88,62c0,0-20.59-16.32-11.73-31.93a19.25,19.25,0,0,1-11,3.78"/><path class="cls-13" d="M100.15,27.37l.27.27a4.35,4.35,0,0,1,1.27,3.08v13a1.1,1.1,0,0,1-1.1,1.1h0a1.1,1.1,0,0,1-1.1-1.1V27.65A.39.39,0,0,1,100.15,27.37Z"/><path class="cls-6" d="M100.59,45.47a1.75,1.75,0,0,1-1.75-1.75V27.65a1,1,0,0,1,1.77-.74h0l.27.27a5,5,0,0,1,1.47,3.54v13A1.75,1.75,0,0,1,100.59,45.47Zm-.45-17.17V43.72a.45.45,0,0,0,.9,0v-13A3.67,3.67,0,0,0,100.14,28.29Zm-.45-.46Z"/><path class="cls-6" d="M74.36,39.2H73.24a3.58,3.58,0,1,0-7.15,0H65a4.7,4.7,0,0,1,9.4,0Z"/><path class="cls-6" d="M94.79,39.2H93.66a3.58,3.58,0,1,0-7.15,0H85.39a4.7,4.7,0,0,1,9.4,0Z"/></g></g></g></svg>